<svg width="23" height="23" viewBox="0 0 23 23" fill="none" xmlns="http://www.w3.org/2000/svg">
<path fill-rule="evenodd" clip-rule="evenodd" d="M4.5 0.424561C3.43913 0.424561 2.42172 0.845988 1.67157 1.59613C0.921427 2.34628 0.5 3.36369 0.5 4.42456V18.4246C0.5 19.4854 0.921427 20.5028 1.67157 21.253C2.42172 22.0031 3.43913 22.4246 4.5 22.4246H18.5C19.5609 22.4246 20.5783 22.0031 21.3284 21.253C22.0786 20.5028 22.5 19.4854 22.5 18.4246V4.42456C22.5 3.36369 22.0786 2.34628 21.3284 1.59613C20.5783 0.845988 19.5609 0.424561 18.5 0.424561H4.5ZM14.461 5.69956C14.5015 5.57207 14.5161 5.43774 14.5038 5.30453C14.4915 5.17131 14.4526 5.04192 14.3894 4.92401C14.3262 4.8061 14.24 4.70207 14.1358 4.61809C14.0317 4.5341 13.9118 4.47186 13.7832 4.43505C13.6545 4.39825 13.5198 4.38762 13.387 4.40381C13.2542 4.42 13.126 4.46267 13.01 4.52929C12.894 4.59592 12.7926 4.68514 12.7116 4.79168C12.6307 4.89823 12.572 5.01992 12.539 5.14956L8.539 17.1496C8.49845 17.2771 8.4839 17.4114 8.49619 17.5446C8.50849 17.6778 8.5474 17.8072 8.6106 17.9251C8.67381 18.043 8.76003 18.147 8.86416 18.231C8.9683 18.315 9.08822 18.3773 9.21684 18.4141C9.34546 18.4509 9.48016 18.4615 9.61296 18.4453C9.74576 18.4291 9.87396 18.3865 9.98997 18.3198C10.106 18.2532 10.2074 18.164 10.2884 18.0574C10.3693 17.9509 10.428 17.8292 10.461 17.6996L14.461 5.69956ZM7.207 9.13156C7.38916 8.94296 7.48995 8.69036 7.48767 8.42816C7.4854 8.16596 7.38023 7.91515 7.19482 7.72974C7.00941 7.54433 6.7586 7.43917 6.4964 7.43689C6.2342 7.43461 5.9816 7.5354 5.793 7.71756L2.793 10.7176C2.60553 10.9051 2.50021 11.1594 2.50021 11.4246C2.50021 11.6897 2.60553 11.944 2.793 12.1316L5.793 15.1316C5.9816 15.3137 6.2342 15.4145 6.4964 15.4122C6.7586 15.41 7.00941 15.3048 7.19482 15.1194C7.38023 14.934 7.4854 14.6832 7.48767 14.421C7.48995 14.1588 7.38916 13.9062 7.207 13.7176L4.914 11.4246L7.207 9.13156ZM17.207 7.71756C17.1148 7.62205 17.0044 7.54587 16.8824 7.49346C16.7604 7.44105 16.6292 7.41346 16.4964 7.41231C16.3636 7.41116 16.2319 7.43646 16.109 7.48674C15.9862 7.53702 15.8745 7.61127 15.7806 7.70517C15.6867 7.79906 15.6125 7.91071 15.5622 8.03361C15.5119 8.1565 15.4866 8.28818 15.4877 8.42096C15.4889 8.55374 15.5165 8.68496 15.5689 8.80696C15.6213 8.92897 15.6975 9.03931 15.793 9.13156L18.086 11.4246L15.793 13.7176C15.6108 13.9062 15.51 14.1588 15.5123 14.421C15.5146 14.6832 15.6198 14.934 15.8052 15.1194C15.9906 15.3048 16.2414 15.41 16.5036 15.4122C16.7658 15.4145 17.0184 15.3137 17.207 15.1316L20.207 12.1316C20.3945 11.944 20.4998 11.6897 20.4998 11.4246C20.4998 11.1594 20.3945 10.9051 20.207 10.7176L17.207 7.71756Z" fill="#919FB6"/>
</svg>
