<svg width="106" height="16" viewBox="0 0 106 16" fill="none" xmlns="http://www.w3.org/2000/svg">
<path d="M6.80434 0.20256C7.70434 0.20256 8.53234 0.36456 9.28834 0.68856C10.0563 1.00056 10.7163 1.43856 11.2683 2.00256C11.8323 2.55456 12.2703 3.21456 12.5823 3.98256C12.8943 4.73856 13.0503 5.55456 13.0503 6.43056C13.0503 7.31856 12.8943 8.14056 12.5823 8.89656C12.2703 9.65256 11.8323 10.3126 11.2683 10.8766C10.7163 11.4286 10.0563 11.8666 9.28834 12.1906C8.53234 12.5026 7.70434 12.6586 6.80434 12.6586C5.90434 12.6586 5.07034 12.5026 4.30234 12.1906C3.54634 11.8666 2.88634 11.4286 2.32234 10.8766C1.77034 10.3126 1.33834 9.65256 1.02634 8.89656C0.714336 8.14056 0.558336 7.31856 0.558336 6.43056C0.558336 5.55456 0.714336 4.73856 1.02634 3.98256C1.33834 3.21456 1.77034 2.55456 2.32234 2.00256C2.88634 1.43856 3.54634 1.00056 4.30234 0.68856C5.07034 0.36456 5.90434 0.20256 6.80434 0.20256ZM6.80434 10.9666C7.45234 10.9666 8.04634 10.8586 8.58634 10.6426C9.12634 10.4146 9.58834 10.1026 9.97234 9.70656C10.3683 9.29856 10.6743 8.81856 10.8903 8.26656C11.1063 7.71456 11.2143 7.10256 11.2143 6.43056C11.2143 5.77056 11.1063 5.16456 10.8903 4.61256C10.6743 4.04856 10.3683 3.56856 9.97234 3.17256C9.58834 2.76456 9.12634 2.45256 8.58634 2.23656C8.04634 2.00856 7.45234 1.89456 6.80434 1.89456C6.15634 1.89456 5.56234 2.00856 5.02234 2.23656C4.48234 2.45256 4.01434 2.76456 3.61834 3.17256C3.23434 3.56856 2.93434 4.04856 2.71834 4.61256C2.50234 5.16456 2.39434 5.77056 2.39434 6.43056C2.39434 7.10256 2.50234 7.71456 2.71834 8.26656C2.93434 8.81856 3.23434 9.29856 3.61834 9.70656C4.01434 10.1026 4.48234 10.4146 5.02234 10.6426C5.56234 10.8586 6.15634 10.9666 6.80434 10.9666ZM15.031 4.84656H16.795V7.65456H19.927V4.84656H21.691V12.4246H19.927V9.27456H16.795V12.4246H15.031V4.84656ZM30.1536 12.4246H28.3896V6.46656H26.1576V9.47256C26.1576 9.79656 26.1156 10.1566 26.0316 10.5526C25.9476 10.9366 25.7496 11.3026 25.4376 11.6506C25.0896 12.0346 24.6876 12.2746 24.2316 12.3706C23.7876 12.4666 23.3616 12.4846 22.9536 12.4246V10.8046C23.2176 10.8646 23.4576 10.8586 23.6736 10.7866C23.9016 10.7026 24.0756 10.5946 24.1956 10.4626C24.3156 10.3186 24.3876 10.1566 24.4116 9.97656C24.4476 9.78456 24.4656 9.61656 24.4656 9.47256V4.84656H30.1536V12.4246ZM37.9246 4.84656H39.6886V12.4246H37.9246V11.6326C37.7326 11.8606 37.5286 12.0406 37.3126 12.1726C37.1086 12.3046 36.9046 12.4066 36.7006 12.4786C36.4966 12.5506 36.3046 12.5986 36.1246 12.6226C35.9446 12.6466 35.7886 12.6586 35.6566 12.6586C35.0686 12.6586 34.5466 12.5506 34.0906 12.3346C33.6346 12.1066 33.2506 11.8066 32.9386 11.4346C32.6266 11.0506 32.3866 10.6186 32.2186 10.1386C32.0626 9.65856 31.9846 9.15456 31.9846 8.62656C31.9846 8.01456 32.0806 7.46256 32.2726 6.97056C32.4766 6.47856 32.7466 6.06456 33.0826 5.72856C33.4186 5.38056 33.8086 5.11656 34.2526 4.93656C34.6966 4.74456 35.1706 4.64856 35.6746 4.64856C35.8186 4.64856 35.9806 4.66056 36.1606 4.68456C36.3406 4.70856 36.5326 4.76256 36.7366 4.84656C36.9406 4.91856 37.1446 5.02656 37.3486 5.17056C37.5526 5.31456 37.7446 5.50056 37.9246 5.72856V4.84656ZM35.8906 6.23256C35.5666 6.23256 35.2726 6.29856 35.0086 6.43056C34.7566 6.55056 34.5406 6.72456 34.3606 6.95256C34.1806 7.16856 34.0366 7.42656 33.9286 7.72656C33.8326 8.01456 33.7846 8.32656 33.7846 8.66256C33.7846 8.98656 33.8326 9.29856 33.9286 9.59856C34.0366 9.88656 34.1806 10.1446 34.3606 10.3726C34.5406 10.5886 34.7566 10.7626 35.0086 10.8946C35.2726 11.0146 35.5666 11.0746 35.8906 11.0746C36.1666 11.0746 36.4306 11.0266 36.6826 10.9306C36.9466 10.8226 37.1746 10.6726 37.3666 10.4806C37.5706 10.2766 37.7326 10.0246 37.8526 9.72456C37.9726 9.42456 38.0326 9.07656 38.0326 8.68056C38.0326 8.27256 37.9726 7.91256 37.8526 7.60056C37.7326 7.28856 37.5706 7.03656 37.3666 6.84456C37.1746 6.64056 36.9466 6.49056 36.6826 6.39456C36.4306 6.28656 36.1666 6.23256 35.8906 6.23256ZM43.6896 4.84656V9.14856L48.8736 4.16256V12.4246H47.1096V8.01456L41.9256 13.0006V4.84656H43.6896ZM43.9416 1.15656C44.0136 1.42056 44.1096 1.63056 44.2296 1.78656C44.3616 1.94256 44.4936 2.06256 44.6256 2.14656C44.7696 2.21856 44.9076 2.26656 45.0396 2.29056C45.1836 2.31456 45.3096 2.32656 45.4176 2.32656C46.1616 2.32656 46.6536 1.93656 46.8936 1.15656L48.3336 1.57056C48.2256 1.94256 48.0636 2.26656 47.8476 2.54256C47.6316 2.80656 47.3856 3.02256 47.1096 3.19056C46.8336 3.35856 46.5456 3.48456 46.2456 3.56856C45.9456 3.65256 45.6696 3.69456 45.4176 3.69456C45.1656 3.69456 44.8896 3.65256 44.5896 3.56856C44.2896 3.48456 44.0016 3.35856 43.7256 3.19056C43.4496 3.02256 43.2036 2.80656 42.9876 2.54256C42.7716 2.26656 42.6096 1.94256 42.5016 1.57056L43.9416 1.15656ZM51.1014 4.84656H52.8654V7.65456H55.9974V4.84656H57.7614V12.4246H55.9974V9.27456H52.8654V12.4246H51.1014V4.84656ZM59.7799 7.67256H64.0999V9.50856H59.7799V7.67256ZM76.0087 0.41856V10.6966H77.3767V15.1246H75.6487V12.4246H67.9087V15.1246H66.1807V10.6966C66.3967 10.7086 66.6007 10.6726 66.7927 10.5886C66.9847 10.5046 67.1587 10.3906 67.3147 10.2466C67.4827 10.0906 67.6267 9.91656 67.7467 9.72456C67.8787 9.52056 67.9927 9.30456 68.0887 9.07656C68.2087 8.77656 68.3107 8.38656 68.3947 7.90656C68.4787 7.41456 68.5207 6.75456 68.5207 5.92656V0.41856H76.0087ZM70.3567 5.92656C70.3567 6.85056 70.3147 7.57056 70.2307 8.08656C70.1467 8.59056 70.0507 8.98656 69.9427 9.27456C69.8107 9.61056 69.6607 9.89256 69.4927 10.1206C69.3367 10.3366 69.1747 10.5286 69.0067 10.6966H74.1727V2.14656H70.3567V5.92656ZM85.5377 10.6966C85.3697 10.9846 85.1717 11.2486 84.9437 11.4886C84.7277 11.7286 84.4997 11.9266 84.2597 12.0826C83.9477 12.2866 83.5997 12.4306 83.2157 12.5146C82.8317 12.6106 82.4357 12.6586 82.0277 12.6586C81.5237 12.6586 81.0617 12.5866 80.6417 12.4426C80.2217 12.2986 79.8317 12.0466 79.4717 11.6866C79.1117 11.3266 78.8357 10.9006 78.6437 10.4086C78.4517 9.90456 78.3557 9.36456 78.3557 8.78856C78.3557 8.20056 78.4577 7.63656 78.6617 7.09656C78.8657 6.55656 79.1657 6.08256 79.5617 5.67456C79.8737 5.36256 80.2397 5.11656 80.6597 4.93656C81.0797 4.74456 81.5597 4.64856 82.0997 4.64856C82.7117 4.64856 83.2097 4.75656 83.5937 4.97256C83.9897 5.17656 84.3017 5.39856 84.5297 5.63856C84.7697 5.89056 84.9617 6.16656 85.1057 6.46656C85.2497 6.75456 85.3577 7.04256 85.4297 7.33056C85.5017 7.61856 85.5437 7.89456 85.5557 8.15856C85.5797 8.42256 85.5917 8.65056 85.5917 8.84256V9.05856H80.1557C80.1797 9.33456 80.2457 9.61056 80.3537 9.88656C80.4617 10.1626 80.6117 10.3966 80.8037 10.5886C81.0077 10.7926 81.2297 10.9246 81.4697 10.9846C81.7097 11.0446 81.9377 11.0746 82.1537 11.0746C82.6217 11.0746 83.0237 10.9486 83.3597 10.6966C83.5157 10.5766 83.6477 10.4446 83.7557 10.3006C83.8757 10.1566 83.9777 10.0126 84.0617 9.86856L85.5377 10.6966ZM83.7917 7.61856C83.7197 7.19856 83.5397 6.85656 83.2517 6.59256C83.1317 6.48456 82.9757 6.38856 82.7837 6.30456C82.5917 6.20856 82.3517 6.16056 82.0637 6.16056C81.7517 6.16056 81.4937 6.21456 81.2897 6.32256C81.0977 6.41856 80.9417 6.52656 80.8217 6.64656C80.5577 6.88656 80.3777 7.21056 80.2817 7.61856H83.7917ZM88.4073 4.16256L91.5393 9.94056L94.6713 4.16256L96.5073 12.4246H94.7073L93.9513 8.62656L91.5393 13.0006L89.1273 8.62656L88.3713 12.4246H86.5713L88.4073 4.16256ZM101.531 4.64856C102.107 4.64856 102.641 4.75056 103.133 4.95456C103.625 5.14656 104.051 5.42256 104.411 5.78256C104.771 6.13056 105.053 6.55056 105.257 7.04256C105.473 7.52256 105.581 8.05656 105.581 8.64456C105.581 9.22056 105.473 9.75456 105.257 10.2466C105.053 10.7386 104.771 11.1646 104.411 11.5246C104.051 11.8846 103.625 12.1666 103.133 12.3706C102.641 12.5626 102.107 12.6586 101.531 12.6586C100.955 12.6586 100.421 12.5626 99.9287 12.3706C99.4367 12.1666 99.0107 11.8846 98.6507 11.5246C98.2907 11.1646 98.0027 10.7386 97.7867 10.2466C97.5827 9.75456 97.4807 9.22056 97.4807 8.64456C97.4807 8.05656 97.5827 7.52256 97.7867 7.04256C98.0027 6.55056 98.2907 6.13056 98.6507 5.78256C99.0107 5.42256 99.4367 5.14656 99.9287 4.95456C100.421 4.75056 100.955 4.64856 101.531 4.64856ZM101.531 11.0746C102.227 11.0746 102.773 10.8586 103.169 10.4266C103.577 9.98256 103.781 9.39456 103.781 8.66256C103.781 8.23056 103.715 7.86456 103.583 7.56456C103.451 7.25256 103.277 7.00056 103.061 6.80856C102.857 6.60456 102.617 6.46056 102.341 6.37656C102.077 6.28056 101.807 6.23256 101.531 6.23256C101.255 6.23256 100.979 6.28056 100.703 6.37656C100.439 6.46056 100.199 6.60456 99.9827 6.80856C99.7787 7.00056 99.6107 7.25256 99.4787 7.56456C99.3467 7.86456 99.2807 8.23056 99.2807 8.66256C99.2807 9.39456 99.4787 9.98256 99.8747 10.4266C100.283 10.8586 100.835 11.0746 101.531 11.0746Z" fill="#919FB6"/>
</svg>
